<svg width="198" height="41" viewBox="0 0 198 41" xmlns="http://www.w3.org/2000/svg"><title>logo</title><g fill="none" fill-rule="evenodd"><path d="M24.66 4.083c-.694-.002-1.26.545-1.26 1.224-.003.538.35.996.842 1.163-.092.227-.25.48-.536.755-.925.897-2.256.937-3.572.72-1.59-.265-3.112-1.466-3.98-2.949a3.719 3.719 0 0 1-.541-2.073.372.372 0 0 1 .173-.323c.37-.212.62-.605.622-1.056.002-.678-.56-1.23-1.253-1.232h-.057c-.693.002-1.255.554-1.253 1.232.003.451.252.844.622 1.056a.372.372 0 0 1 .174.323 3.73 3.73 0 0 1-.541 2.073c-.87 1.483-2.39 2.684-3.981 2.948-1.316.218-2.647.178-3.572-.719a2.197 2.197 0 0 1-.536-.755 1.23 1.23 0 0 0 .843-1.163c-.002-.679-.567-1.226-1.26-1.224-.695.002-1.256.554-1.253 1.232 0 .49.296.913.722 1.107.122.056.19.19.191.326l.021 6.341c.001.31.367.472.593.262l4.47-4.162a.529.529 0 0 1 .361-.143h8.855c.133 0 .262.051.36.143l4.472 4.162c.226.21.59.049.592-.262l.021-6.34c0-.137.069-.271.19-.327a1.22 1.22 0 0 0 .723-1.107c.003-.678-.558-1.23-1.252-1.232" fill="#BD4E9D"/><path fill="#3ABFFF" d="M15.171 19.786h.089l7.597.027-3.766-9.464-3.887-.014-3.887-.014-3.833 9.437 7.599.028zM5.24 15.152L0 23.887l6.372-4.178 3.949-9.39zm9.002 24.504L.051 25.115l6.454-4.232 3.868 9.387zM25.135 15.22l5.178 8.771-6.343-4.224-3.882-9.418zm-9.069 24.438L30.36 25.22l-6.424-4.279L20 30.3zM15.22 20.95l-2.91-.01-4.587-.017 3.754 9.435 3.678 9.242 3.741-9.217 3.82-9.406-7.497-.028z"/><g fill="#FFF"><path d="M39.37 17.287l-.016 3.957-1.315-.005.048-12.837 1.316.006-.026 7.133 6.307-7.112 1.584.005-5.502 6.19 5.36 6.646-1.637-.005-4.586-5.702zm10.48-7.606l-.043 11.91-1.33-.007.05-13.207 3.689.014c.812.003 1.464.063 1.955.181.492.121.941.317 1.344.59.545.373.978.867 1.292 1.487a4.21 4.21 0 0 1 .467 1.96c-.003 1.02-.323 1.9-.958 2.636-.632.734-1.425 1.133-2.375 1.196l3.302 5.173-1.604-.005-4.052-6.38 1.302.004c.867.005 1.572-.238 2.12-.729.543-.486.819-1.113.822-1.881a3.096 3.096 0 0 0-.245-1.27 2.753 2.753 0 0 0-.735-1 2.369 2.369 0 0 0-.975-.509c-.379-.1-1.06-.153-2.035-.156l-1.99-.007zm13.567 7.101l-.019 4.852-1.332-.004.019-4.87-4.356-8.35 1.546.008 3.486 6.864 3.568-6.843 1.504.005zm4.538 1.095l1.302.005c.021.82.259 1.468.714 1.954.454.488 1.053.73 1.796.734.8.002 1.433-.237 1.906-.716.468-.478.706-1.13.709-1.954.007-1.196-.956-2.102-2.88-2.721-.15-.049-.264-.083-.34-.109-1.006-.336-1.727-.76-2.172-1.274-.439-.51-.66-1.18-.654-2.001.004-1.052.346-1.914 1.03-2.585.687-.665 1.57-.998 2.655-.995 1.03.003 1.846.31 2.446.925.603.613.935 1.473 1.002 2.581l-1.27-.005c-.067-.72-.289-1.278-.666-1.67-.376-.391-.883-.59-1.52-.59-.68 0-1.235.208-1.67.635-.43.425-.648.967-.651 1.627 0 .344.062.64.188.896.13.25.334.48.62.686.288.208.84.438 1.658.695.472.145.828.266 1.075.357.892.334 1.535.763 1.925 1.282.393.516.585 1.194.584 2.036-.007 1.283-.372 2.315-1.104 3.095-.728.779-1.693 1.165-2.896 1.163-1.12-.003-2.026-.377-2.722-1.118-.697-.746-1.053-1.722-1.065-2.933m12.639 3.817l-1.351-.003.042-11.909-2.746-.01.006-1.297 6.843.023-.006 1.297-2.745-.01zm3.126.013l-1.425-.008 5.38-13.187 1.621.004 5.264 13.227-1.444-.007-1.628-4.15-6.113-.02-1.656 4.14zm7.303-5.31l-2.582-6.64-2.591 6.624 5.173.016zm10.757 5.37l-6.19-.021.048-13.206 1.359.003-.045 11.926 4.832.017zM123.027 11.27c-.62-.861-1.314-1.494-2.083-1.9-.766-.405-1.642-.61-2.63-.613-1.54-.005-2.865.557-3.965 1.687-1.102 1.13-1.653 2.476-1.657 4.04-.01 1.663.533 3.069 1.62 4.212 1.082 1.143 2.406 1.72 3.964 1.723.96.005 1.828-.192 2.606-.584.773-.396 1.453-.987 2.027-1.773l1.618.007c-.641 1.171-1.495 2.073-2.563 2.707-1.071.637-2.27.952-3.6.947-2.038-.007-3.74-.7-5.098-2.086-1.361-1.385-2.033-3.11-2.025-5.177.002-.965.19-1.878.56-2.738a7.129 7.129 0 0 1 1.633-2.328 6.765 6.765 0 0 1 2.23-1.485 7.007 7.007 0 0 1 2.675-.494c1.377.006 2.618.342 3.72 1.015 1.1.672 1.97 1.619 2.607 2.845l-1.64-.005zm3.246 10.209l-1.438-.008 5.434-13.737 1.64.004 5.316 13.778-1.458-.007-1.645-4.322-6.175-.022-1.674 4.314zm7.379-5.531l-2.608-6.918-2.616 6.901 5.224.017zm4.694 5.57l.049-13.758 2.01.007 4.765 11.98 4.828-11.945 2.011.006-.051 13.759-1.305-.003.045-12.153-4.928 12.135-1.226-.006-4.839-12.165-.044 12.148zm17.312-12.345l-.018 5.247 2.012.006c1.117.007 1.945-.202 2.478-.623.537-.423.806-1.073.808-1.954.001-.92-.262-1.595-.8-2.02-.536-.429-1.394-.644-2.584-.648l-1.896-.008zM154.3 7.818l2.947.01c.847.003 1.52.049 2.028.139.51.09.932.233 1.27.43.606.37 1.072.844 1.398 1.427.325.582.489 1.242.483 1.971a4.265 4.265 0 0 1-.45 1.924 3.525 3.525 0 0 1-1.24 1.397 3.74 3.74 0 0 1-1.32.53c-.51.108-1.164.161-1.96.16l-1.82-.008-.022 5.781-1.364-.003.05-13.758zm11.306 13.797l-1.363-.007.05-13.757 1.362.006zm3.334-6.933c-.005 1.677.539 3.085 1.634 4.221 1.093 1.139 2.45 1.708 4.066 1.715 1.575.005 2.909-.562 4-1.707 1.091-1.141 1.64-2.548 1.646-4.226.005-1.56-.55-2.912-1.664-4.049-1.117-1.132-2.463-1.702-4.036-1.707a5.418 5.418 0 0 0-1.855.317 5.474 5.474 0 0 0-1.649.954 5.984 5.984 0 0 0-1.567 2.026 5.67 5.67 0 0 0-.576 2.456m-1.428-.024a6.851 6.851 0 0 1 .567-2.74 7.158 7.158 0 0 1 1.626-2.327 6.998 6.998 0 0 1 2.251-1.487 6.964 6.964 0 0 1 2.655-.49 7.082 7.082 0 0 1 2.702.514c.829.34 1.583.845 2.266 1.516a6.94 6.94 0 0 1 1.585 2.31c.354.854.526 1.77.526 2.753-.006.977-.162 1.874-.468 2.69a6.871 6.871 0 0 1-1.382 2.218 7.076 7.076 0 0 1-2.399 1.73c-.89.39-1.86.581-2.9.578-1.995-.008-3.666-.707-5.018-2.103-1.345-1.394-2.018-3.115-2.011-5.162m25.275 5.408l-.116-12.113 1.353.004-.05 13.756-1.639-.004L184.76 9.55l.11 12.132-1.345-.005.05-13.758 1.638.005zm5.147 1.664l-1.362-.006.049-13.758 1.362.005z"/></g><path d="M39.116 38v-8.28a39.653 39.653 0 0 1 2.868-.108c1.168 0 1.986.314 2.454.942.468.628.702 1.73.702 3.306s-.234 2.678-.702 3.306c-.468.628-1.286.942-2.454.942-.904 0-1.86-.036-2.868-.108zm.78-7.668v7.056c.8.016 1.496.024 2.088.024.872 0 1.478-.26 1.818-.78.34-.52.51-1.444.51-2.772 0-1.328-.17-2.254-.51-2.778-.34-.524-.946-.786-1.818-.786-.144 0-.84.012-2.088.036zm10.464 5.136h-2.904c.048.768.224 1.296.528 1.584.304.288.8.432 1.488.432.6 0 1.268-.048 2.004-.144l.084.516c-.496.192-1.228.288-2.196.288-.976 0-1.67-.234-2.082-.702-.412-.468-.618-1.258-.618-2.37 0-1.12.2-1.906.6-2.358.4-.452 1.068-.678 2.004-.678.824 0 1.432.15 1.824.45.392.3.592.754.6 1.362.016 1.08-.428 1.62-1.332 1.62zm-2.904-.6h2.724c.512 0 .76-.336.744-1.008-.008-.408-.14-.704-.396-.888-.256-.184-.664-.276-1.224-.276-.68 0-1.156.158-1.428.474-.272.316-.412.882-.42 1.698zm8.616.672l-1.776-.336c-.456-.088-.786-.254-.99-.498-.204-.244-.306-.606-.306-1.086 0-.656.166-1.086.498-1.29.332-.204.91-.302 1.734-.294.88.016 1.672.076 2.376.18l-.072.552a47.618 47.618 0 0 0-2.208-.072c-.64-.008-1.064.038-1.272.138-.208.1-.312.362-.312.786 0 .328.068.556.204.684.136.128.364.224.684.288l1.788.336c.464.096.804.262 1.02.498.216.236.324.59.324 1.062 0 .68-.182 1.124-.546 1.332-.364.208-.986.312-1.866.312-.792 0-1.532-.052-2.22-.156l.06-.564c.632.056 1.308.08 2.028.072.712-.008 1.19-.074 1.434-.198.244-.124.366-.39.366-.798 0-.312-.076-.532-.228-.66-.152-.128-.392-.224-.72-.288zm3.6-5.796h.348c.168 0 .252.084.252.252v.696c0 .168-.084.252-.252.252h-.348c-.168 0-.252-.084-.252-.252v-.696c0-.168.084-.252.252-.252zM60.224 38h-.756v-5.808h.756V38zm7.344-5.376l-.972.072c.224.272.336.668.336 1.188 0 .632-.184 1.092-.552 1.38-.368.288-.992.432-1.872.432-.544 0-.984-.052-1.32-.156a.995.995 0 0 0-.216.474.583.583 0 0 0 .126.456c.108.14.286.23.534.27l2.232.372c.528.08.894.244 1.098.492.204.248.306.616.306 1.104 0 .656-.198 1.112-.594 1.368-.396.256-1.098.384-2.106.384-1.024 0-1.736-.126-2.136-.378-.4-.252-.6-.702-.6-1.35 0-.384.072-.69.216-.918.144-.228.4-.438.768-.63-.344-.216-.51-.516-.498-.9a1.12 1.12 0 0 1 .474-.912c-.48-.264-.72-.76-.72-1.488 0-.648.184-1.118.552-1.41.368-.292.996-.438 1.884-.438.536 0 .964.052 1.284.156h1.824l-.048.432zm-3.06 2.484c.624 0 1.064-.096 1.32-.288.256-.192.384-.504.384-.936 0-.448-.128-.768-.384-.96-.256-.192-.696-.288-1.32-.288-.632 0-1.078.096-1.338.288-.26.192-.39.512-.39.96 0 .432.132.744.396.936.264.192.708.288 1.332.288zm-1.176 2.244l-.048.036c-.264.184-.448.368-.552.552-.104.184-.156.432-.156.744 0 .44.14.738.42.894.28.156.804.234 1.572.234.752 0 1.266-.08 1.542-.24.276-.16.414-.456.414-.888 0-.336-.066-.57-.198-.702s-.406-.23-.822-.294l-2.172-.336zm6.216-5.16l.06.96c.968-.744 1.864-1.116 2.688-1.116 1.04 0 1.56.532 1.56 1.596V38H73.1v-4.164c0-.408-.078-.7-.234-.876-.156-.176-.414-.264-.774-.264-.352 0-.706.08-1.062.24-.356.16-.806.416-1.35.768V38h-.768v-5.808h.636zm6.492 4.524h.24c.192 0 .288.1.288.3v.768a4.715 4.715 0 0 1-.348 1.728l-.36-.108c.064-.512.096-.98.096-1.404-.16 0-.232-.084-.216-.252v-.732c.008-.2.108-.3.3-.3zm10.404.588l.096.588c-.624.168-1.416.252-2.376.252-1.168 0-1.988-.32-2.46-.96-.472-.64-.708-1.748-.708-3.324 0-1.576.236-2.684.708-3.324.472-.64 1.292-.96 2.46-.96.872 0 1.608.076 2.208.228l-.096.588a18.178 18.178 0 0 0-2.112-.108c-.88 0-1.492.26-1.836.78-.344.52-.516 1.452-.516 2.796 0 1.344.172 2.276.516 2.796.344.52.956.78 1.836.78.912 0 1.672-.044 2.28-.132zm3.948-5.268c.976 0 1.664.23 2.064.69.4.46.6 1.25.6 2.37s-.2 1.908-.6 2.364c-.4.456-1.088.684-2.064.684s-1.666-.23-2.07-.69c-.404-.46-.606-1.246-.606-2.358 0-1.12.202-1.91.606-2.37.404-.46 1.094-.69 2.07-.69zm0 .66c-.704 0-1.192.172-1.464.516-.272.344-.408.972-.408 1.884 0 .912.136 1.54.408 1.884.272.344.76.516 1.464.516s1.192-.172 1.464-.516c.272-.344.408-.972.408-1.884 0-.912-.136-1.54-.408-1.884-.272-.344-.76-.516-1.464-.516zM98.996 38l-.084-.9c-.792.696-1.568 1.044-2.328 1.044-.736 0-1.266-.244-1.59-.732-.324-.488-.486-1.264-.486-2.328 0-1.104.172-1.888.516-2.352.344-.464.896-.696 1.656-.696.736 0 1.468.188 2.196.564a10.169 10.169 0 0 1-.048-1.14V29.6h.756V38h-.588zm-.168-1.452v-3.42c-.824-.28-1.488-.42-1.992-.42-.568 0-.966.17-1.194.51-.228.34-.342.958-.342 1.854 0 .904.112 1.53.336 1.878.224.348.612.522 1.164.522.328 0 .636-.068.924-.204.288-.136.656-.376 1.104-.72zm6.192-1.08h-2.904c.048.768.224 1.296.528 1.584.304.288.8.432 1.488.432.6 0 1.268-.048 2.004-.144l.084.516c-.496.192-1.228.288-2.196.288-.976 0-1.67-.234-2.082-.702-.412-.468-.618-1.258-.618-2.37 0-1.12.2-1.906.6-2.358.4-.452 1.068-.678 2.004-.678.824 0 1.432.15 1.824.45.392.3.592.754.6 1.362.016 1.08-.428 1.62-1.332 1.62zm-2.904-.6h2.724c.512 0 .76-.336.744-1.008-.008-.408-.14-.704-.396-.888-.256-.184-.664-.276-1.224-.276-.68 0-1.156.158-1.428.474-.272.316-.412.882-.42 1.698zm6.108 1.848h.24c.192 0 .288.1.288.3v.768a4.715 4.715 0 0 1-.348 1.728l-.36-.108c.064-.512.096-.98.096-1.404-.16 0-.232-.084-.216-.252v-.732c.008-.2.108-.3.3-.3zm10.404.588l.096.588c-.624.168-1.416.252-2.376.252-1.168 0-1.988-.32-2.46-.96-.472-.64-.708-1.748-.708-3.324 0-1.576.236-2.684.708-3.324.472-.64 1.292-.96 2.46-.96.872 0 1.608.076 2.208.228l-.096.588a18.178 18.178 0 0 0-2.112-.108c-.88 0-1.492.26-1.836.78-.344.52-.516 1.452-.516 2.796 0 1.344.172 2.276.516 2.796.344.52.956.78 1.836.78.912 0 1.672-.044 2.28-.132zm5.052-5.268l-.096.72h-.288c-.336 0-.676.07-1.02.21-.344.14-.784.37-1.32.69V38h-.768v-5.808h.588l.084.96c.952-.744 1.808-1.116 2.568-1.116h.252zm4.44 3.432h-2.904c.048.768.224 1.296.528 1.584.304.288.8.432 1.488.432.6 0 1.268-.048 2.004-.144l.084.516c-.496.192-1.228.288-2.196.288-.976 0-1.67-.234-2.082-.702-.412-.468-.618-1.258-.618-2.37 0-1.12.2-1.906.6-2.358.4-.452 1.068-.678 2.004-.678.824 0 1.432.15 1.824.45.392.3.592.754.6 1.362.016 1.08-.428 1.62-1.332 1.62zm-2.904-.6h2.724c.512 0 .76-.336.744-1.008-.008-.408-.14-.704-.396-.888-.256-.184-.664-.276-1.224-.276-.68 0-1.156.158-1.428.474-.272.316-.412.882-.42 1.698zm5.892-2.004l-.072-.564c1.16-.176 2.092-.264 2.796-.264.624 0 1.09.138 1.398.414.308.276.462.734.462 1.374V38h-.6l-.096-1.02c-.288.288-.662.546-1.122.774-.46.228-.934.342-1.422.342-.512 0-.916-.136-1.212-.408-.296-.272-.444-.66-.444-1.164v-.672c0-.448.132-.796.396-1.044s.64-.372 1.128-.372h2.604v-.612c0-.384-.09-.668-.27-.852-.18-.184-.502-.276-.966-.276-.688 0-1.548.056-2.58.168zm.456 3.084v.504c0 .648.34.972 1.02.972.352.008.746-.078 1.182-.258.436-.18.822-.422 1.158-.726v-1.392h-2.484c-.584.024-.876.324-.876.9zm9.048 1.452l.096.576c-.4.08-.804.12-1.212.12-.96 0-1.44-.484-1.44-1.452v-3.852H137v-.54l1.056-.06v-1.764h.756v1.764h1.968v.6h-1.968v3.768c0 .56.284.84.852.84h.948zm1.728-7.656h.348c.168 0 .252.084.252.252v.696c0 .168-.084.252-.252.252h-.348c-.168 0-.252-.084-.252-.252v-.696c0-.168.084-.252.252-.252zm.552 8.256h-.756v-5.808h.756V38zm7.032-5.808l-2.22 5.616c-.048.128-.144.192-.288.192h-.708c-.144 0-.24-.064-.288-.192l-2.22-5.616h.816l1.584 4.2c.048.12.114.3.198.54.084.24.146.408.186.504h.156l.396-1.056 1.584-4.188h.804zm1.536-2.448h.348c.168 0 .252.084.252.252v.696c0 .168-.084.252-.252.252h-.348c-.168 0-.252-.084-.252-.252v-.696c0-.168.084-.252.252-.252zm.552 8.256h-.756v-5.808h.756V38zm5.004-.6l.096.576c-.4.08-.804.12-1.212.12-.96 0-1.44-.484-1.44-1.452v-3.852h-1.056v-.54l1.056-.06v-1.764h.756v1.764h1.968v.6h-1.968v3.768c0 .56.284.84.852.84h.948zm6.444-5.208l-2.448 6.216c-.232.592-.524 1.07-.876 1.434-.352.364-.828.578-1.428.642l-.096-.492c.456-.152.812-.364 1.068-.636s.464-.616.624-1.032l.144-.324h-.192c-.152 0-.252-.068-.3-.204l-2.208-5.604h.816l1.716 4.536c.128.336.208.56.24.672h.168l.252-.684 1.704-4.524h.816zm1.068 4.524h.264c.2 0 .3.1.3.3v.684c0 .2-.1.3-.3.3h-.264c-.192 0-.288-.1-.288-.3v-.684c0-.2.096-.3.288-.3z" fill="#82ABBD"/></g></svg>